<svg width="77" height="87" fill="none" xmlns="http://www.w3.org/2000/svg"><path d="M0 0h77v87H0V0z" fill="#171717"/><path d="M14.495 40.392c-3.92 0-6.746-.996-8.477-2.989-1.731-1.993-2.597-5.047-2.597-9.163V17.166c0-3.103.327-5.619.98-7.546.686-1.96 1.813-3.43 3.381-4.41 1.6-.98 3.806-1.47 6.615-1.47 3.07 0 5.57.8 7.497 2.401 1.927 1.6 2.891 3.838 2.891 6.713v5.488h-8.722v-5.047c0-.947-.13-1.666-.392-2.156-.261-.523-.768-.784-1.519-.784-1.405 0-2.107.996-2.107 2.989v17.395c0 .817.163 1.519.49 2.107.36.555.882.833 1.568.833s1.192-.278 1.519-.833c.36-.555.523-1.274.49-2.156l-.049-6.027h8.722v6.272c0 2.94-.964 5.26-2.891 6.958-1.895 1.666-4.361 2.499-7.399 2.499zm24.216 0c-7.154 0-10.73-3.708-10.73-11.123V14.863c0-3.397.947-6.092 2.841-8.085 1.928-2.025 4.557-3.038 7.89-3.038 3.331 0 5.945 1.013 7.84 3.038 1.927 1.993 2.89 4.688 2.89 8.085v14.406c0 7.415-3.577 11.123-10.73 11.123zm0-6.615c.686 0 1.193-.245 1.52-.735.326-.49.49-1.16.49-2.009V13.491c0-2.09-.67-3.136-2.01-3.136-1.339 0-2.009 1.045-2.009 3.136v17.542c0 .85.164 1.519.49 2.009.327.49.833.735 1.52.735zm14.41-29.645h8.575v4.557c.36-1.47.98-2.662 1.862-3.577.882-.915 2.058-1.372 3.528-1.372 2.417 0 4.197.751 5.34 2.254 1.177 1.47 1.765 3.577 1.765 6.321V40h-8.428V13.197c0-.784-.164-1.454-.49-2.009-.294-.555-.768-.833-1.421-.833-.882 0-1.47.408-1.764 1.225-.262.784-.392 1.846-.392 3.185V40H53.12V4.132zm-38.626 76.26c-3.92 0-6.746-.996-8.477-2.989-1.731-1.993-2.597-5.047-2.597-9.163V57.166c0-3.103.327-5.619.98-7.546.686-1.96 1.813-3.43 3.381-4.41 1.6-.98 3.806-1.47 6.615-1.47 3.07 0 5.57.8 7.497 2.401 1.927 1.6 2.891 3.838 2.891 6.713v5.488h-8.722v-5.047c0-.947-.13-1.666-.392-2.156-.261-.523-.768-.784-1.519-.784-1.405 0-2.107.996-2.107 2.989v17.395c0 .817.163 1.519.49 2.107.36.555.882.833 1.568.833s1.192-.278 1.519-.833c.36-.555.523-1.274.49-2.156l-.049-6.027h8.722v6.272c0 2.94-.964 5.26-2.891 6.958-1.895 1.666-4.361 2.499-7.399 2.499zm20.296 0c-2.776 0-4.687-.915-5.733-2.744-1.012-1.862-1.519-4.508-1.519-7.938 0-2.81.36-4.965 1.078-6.468.752-1.503 1.78-2.597 3.087-3.283 1.307-.719 3.3-1.503 5.978-2.352l2.352-.784v-3.675c0-.947-.196-1.666-.588-2.156-.359-.523-.8-.784-1.323-.784-.457 0-.865.212-1.225.637-.326.425-.49.996-.49 1.715v2.156h-8.33V53.54c0-3.528.817-6.043 2.45-7.546 1.666-1.503 4.361-2.254 8.085-2.254 2.973 0 5.39.784 7.252 2.352 1.862 1.535 2.793 3.724 2.793 6.566V80h-8.526v-4.263c-.424 1.47-1.11 2.613-2.058 3.43-.914.817-2.009 1.225-3.283 1.225zm3.381-6.664c.654 0 1.111-.261 1.372-.784.294-.555.441-1.225.441-2.009v-9.996c-1.274.49-2.221 1.11-2.842 1.862-.588.751-.882 1.797-.882 3.136v4.606c0 2.123.637 3.185 1.911 3.185z" fill="#fff"/><path d="M59.5 44h8v36h-8V44z" fill="#F2F2F2"/><path d="M53 67v-9h21v9H53z" fill="#F2F2F2"/></svg>
